<svg width="200" height="26" viewBox="0 0 200 26" fill="none" xmlns="http://www.w3.org/2000/svg">
<path d="M4.58102 25.0509C2.9406 24.6363 1.38862 23.9286 0 22.9619L2.02402 18.6059C3.22859 19.4405 4.5577 20.079 5.96201 20.4979C7.43772 20.9671 8.97652 21.2079 10.525 21.2119C11.8187 21.2976 13.1123 21.0453 14.279 20.4799C14.6408 20.2986 14.9455 20.0209 15.1597 19.6776C15.3739 19.3343 15.4892 18.9385 15.493 18.5339C15.4967 18.2482 15.4337 17.9656 15.3091 17.7085C15.1844 17.4515 15.0016 17.227 14.775 17.0529C14.2271 16.624 13.6027 16.303 12.935 16.1069C12.1863 15.8689 11.1744 15.6069 9.89902 15.3209C8.26686 14.9633 6.65708 14.5101 5.078 13.9639C3.83865 13.5201 2.73118 12.771 1.858 11.7859C0.921304 10.67 0.441529 9.24098 0.515015 7.7859C0.501818 6.37666 0.925954 4.99801 1.729 3.8399C2.65392 2.57276 3.92575 1.60033 5.39102 1.03991C7.29551 0.299924 9.32858 -0.0523066 11.371 0.00389826C12.995 0.00176316 14.6135 0.193451 16.192 0.574897C17.6422 0.907835 19.0325 1.46199 20.314 2.2179L18.474 6.60889C16.3009 5.35583 13.8433 4.67973 11.335 4.6449C10.0524 4.55504 8.77033 4.82738 7.63501 5.4309C7.27003 5.63951 6.96674 5.94098 6.75598 6.30473C6.54522 6.66847 6.43448 7.08151 6.435 7.5019C6.43708 7.92454 6.57123 8.33598 6.81866 8.67863C7.0661 9.02128 7.41446 9.27799 7.815 9.4129C9.17533 9.96232 10.587 10.375 12.029 10.6449C13.6626 11.0025 15.274 11.4549 16.855 11.9999C18.0875 12.4401 19.1931 13.1759 20.075 14.1429C21.0148 15.2426 21.496 16.6614 21.419 18.1059C21.4278 19.5062 20.9965 20.8739 20.186 22.0159C19.2459 23.284 17.9618 24.2558 16.486 24.8159C14.5743 25.5548 12.5349 25.9069 10.486 25.8519C8.4902 25.8581 6.50309 25.5885 4.58102 25.0509Z" fill="#524433"/>
<path d="M48.683 16.3699C47.093 14.7899 46.298 12.5332 46.298 9.59991V0.343916H50.925V9.42891C50.925 13.0089 52.4103 14.7989 55.381 14.7989C55.9949 14.8397 56.6102 14.7442 57.1829 14.5195C57.7556 14.2948 58.2717 13.9463 58.694 13.4989C59.5513 12.3235 59.957 10.8788 59.837 9.42891V0.343916H64.407V9.59991C64.407 12.5332 63.612 14.7899 62.022 16.3699C60.1374 17.9035 57.7818 18.7407 55.352 18.7407C52.9223 18.7407 50.5677 17.9035 48.683 16.3699Z" fill="#524433"/>
<path d="M93.1931 1.22992C94.4208 1.75656 95.468 2.63033 96.2061 3.74391C96.8981 4.90888 97.2634 6.23887 97.2634 7.59391C97.2634 8.94896 96.8981 10.2789 96.2061 11.4439C95.4736 12.5625 94.4247 13.4377 93.1931 13.9579C91.7333 14.5692 90.1612 14.866 88.579 14.8289H84.552V18.3999H79.925V0.343915H88.575C90.1599 0.306595 91.7345 0.608687 93.1931 1.22992ZM91.493 10.1559C91.8583 9.84176 92.1461 9.44764 92.3343 9.00418C92.5225 8.56071 92.6058 8.07983 92.578 7.5989C92.6076 7.11366 92.5252 6.62813 92.337 6.17987C92.1489 5.73161 91.8601 5.33266 91.493 5.01391C90.573 4.35391 89.4516 4.03562 88.322 4.11392H84.552V11.0549H88.322C89.4517 11.134 90.5735 10.8164 91.494 10.1569L91.493 10.1559Z" fill="#524433"/>
<path d="M124.652 1.22992C125.88 1.75642 126.927 2.63022 127.665 3.74391C128.357 4.90885 128.723 6.23886 128.723 7.59392C128.723 8.94898 128.357 10.279 127.665 11.4439C126.933 12.5626 125.884 13.4378 124.652 13.9579C123.193 14.5691 121.621 14.8659 120.039 14.8289H116.012V18.3999H111.384V0.343919H120.04C121.623 0.307458 123.195 0.609532 124.652 1.22992ZM122.952 10.1559C123.317 9.84176 123.605 9.44765 123.793 9.00418C123.981 8.56072 124.065 8.07984 124.037 7.59891C124.067 7.11367 123.984 6.62813 123.796 6.17987C123.608 5.73161 123.319 5.33266 122.952 5.01392C122.032 4.35391 120.911 4.03562 119.781 4.11392H116.011V11.0549H119.781C120.911 11.1339 122.032 10.8164 122.953 10.1569L122.952 10.1559Z" fill="#524433"/>
<path d="M142.855 0.343916H147.482V14.6269H157.508V18.3969H142.855V0.343916Z" fill="#524433"/>
<path d="M200 20.7759V25.4129H180.057V0.448912H199.524V5.08591H185.979V10.5069H197.939V15.0019H185.979V20.7809L200 20.7759Z" fill="#524433"/>
<path d="M157.962 24.9809H45.866V26.0019H157.962V24.9809Z" fill="#524433"/>
</svg>
