<svg width="120" height="15" viewBox="0 0 120 15" fill="none" xmlns="http://www.w3.org/2000/svg">
<path d="M2.746 14.4483C1.7673 14.2126 0.837761 13.8064 0 13.2483L1.21301 10.7353C1.93904 11.2188 2.73544 11.5871 3.57401 11.8273C4.46048 12.0982 5.38207 12.237 6.30902 12.2393C7.08252 12.2891 7.85615 12.144 8.55902 11.8173C8.77324 11.7169 8.95499 11.5584 9.08368 11.3599C9.21237 11.1614 9.28282 10.9308 9.28702 10.6943C9.28838 10.528 9.25007 10.3638 9.17529 10.2153C9.10051 10.0667 8.99142 9.93819 8.85703 9.84027C8.52717 9.59198 8.15422 9.40688 7.75702 9.29428C7.30835 9.15695 6.70168 9.00594 5.93701 8.84128C4.95964 8.63518 3.99474 8.37376 3.047 8.05827C2.30958 7.80589 1.6464 7.3743 1.117 6.80227C0.558961 6.16756 0.270208 5.34038 0.312012 4.49627C0.30553 3.67935 0.560634 2.88179 1.04001 2.22027C1.60348 1.48184 2.36705 0.920622 3.24002 0.603268C4.3854 0.174898 5.60257 -0.0288046 6.82501 0.00327744C7.79781 0.0021686 8.76749 0.112897 9.715 0.333279C10.5814 0.524203 11.4143 0.843742 12.186 1.28128L11.086 3.81427C9.77464 3.08931 8.30429 2.70008 6.806 2.68127C6.03962 2.6289 5.27342 2.78546 4.58902 3.13427C4.37333 3.25061 4.19293 3.42286 4.06677 3.63295C3.94061 3.84304 3.87334 4.08322 3.87201 4.32827C3.87641 4.57537 3.95873 4.81476 4.10724 5.0123C4.25575 5.20983 4.46285 5.35542 4.69901 5.42828C5.51622 5.74584 6.36213 5.98393 7.22501 6.13928C8.20227 6.34584 9.16714 6.60724 10.115 6.92227C10.8485 7.17282 11.5106 7.59685 12.045 8.15828C12.6049 8.78397 12.8943 9.60584 12.85 10.4443C12.8539 11.2561 12.5946 12.0473 12.111 12.6993C11.5401 13.4373 10.7712 13.9981 9.89401 14.3163C8.74336 14.7444 7.52132 14.9481 6.29401 14.9163C5.09579 14.9188 3.90259 14.7614 2.746 14.4483Z" fill="white"/>
<path d="M29.212 9.81232C28.7118 9.26767 28.3272 8.62727 28.0814 7.92979C27.8356 7.23232 27.7338 6.49225 27.7821 5.75432V0.205322H30.556V5.65132C30.556 7.79732 31.4464 8.87032 33.227 8.87032C33.595 8.89501 33.964 8.83797 34.3073 8.70329C34.6507 8.56861 34.96 8.35963 35.2131 8.09132C35.727 7.38662 35.9701 6.52052 35.8981 5.65132V0.205322H38.637V5.75333C38.602 6.82921 38.2613 7.87286 37.6549 8.76225C37.0485 9.65165 36.2014 10.35 35.2127 10.7757C34.224 11.2013 33.1345 11.3367 32.0717 11.1659C31.0089 10.9951 30.0166 10.5253 29.211 9.81133L29.212 9.81232Z" fill="white"/>
<path d="M55.909 0.737272C56.6449 1.05299 57.2727 1.57677 57.715 2.24428C58.1297 2.94254 58.3486 3.73965 58.3486 4.55177C58.3486 5.36389 58.1297 6.161 57.715 6.85927C57.276 7.52973 56.6472 8.05434 55.909 8.36627C55.0339 8.73266 54.0914 8.91052 53.143 8.88827H50.729V11.0293H47.959V0.205274H53.147C54.0951 0.184106 55.0367 0.365476 55.909 0.737272ZM54.89 6.08827C55.1091 5.89997 55.2817 5.66371 55.3947 5.39784C55.5076 5.13197 55.5576 4.84364 55.541 4.55526C55.5587 4.26428 55.5092 3.97314 55.3963 3.70436C55.2834 3.43558 55.1102 3.19638 54.89 3.00528C54.3387 2.61 53.6668 2.41938 52.9901 2.46628H50.73V6.62727H52.9901C53.6682 6.67511 54.3416 6.48445 54.894 6.08827H54.89Z" fill="white"/>
<path d="M74.792 0.737341C75.528 1.05296 76.1557 1.57676 76.598 2.24434C77.0128 2.94257 77.2317 3.7397 77.2317 4.55184C77.2317 5.36398 77.0128 6.1611 76.598 6.85933C76.1591 7.52992 75.5303 8.05456 74.792 8.36634C73.9172 8.73262 72.9751 8.91048 72.027 8.88834H69.613V11.0293H66.839V0.205343H72.027C72.9761 0.183716 73.9187 0.365095 74.792 0.737341ZM73.773 6.08834C73.9921 5.90004 74.1647 5.66378 74.2776 5.39791C74.3906 5.13204 74.4406 4.84371 74.424 4.55533C74.4417 4.26435 74.3922 3.97321 74.2793 3.70443C74.1664 3.43565 73.9932 3.19645 73.773 3.00535C73.2217 2.61007 72.5498 2.41945 71.873 2.46634H69.613V6.62734H71.873C72.5491 6.67376 73.2202 6.48317 73.771 6.08834H73.773Z" fill="white"/>
<path d="M85.719 0.205322H88.493V8.76732H94.503V11.0273H85.719V0.205322Z" fill="white"/>
<path d="M120 11.9763V14.6473H108.046V0.270264H119.716V2.94127H111.598V6.06427H118.767V8.65326H111.598V11.9813L120 11.9763Z" fill="white"/>
<path d="M94.747 14.3883H27.552V15.0003H94.747V14.3883Z" fill="white"/>
</svg>
