<svg width="120" height="16" viewBox="0 0 120 16" fill="none" xmlns="http://www.w3.org/2000/svg">
<path d="M2.746 14.9481C1.7673 14.7125 0.837761 14.3063 0 13.7481L1.21301 11.2351C1.93904 11.7186 2.73544 12.087 3.57401 12.3271C4.46048 12.5981 5.38207 12.7369 6.30902 12.7391C7.08252 12.789 7.85615 12.6439 8.55902 12.3171C8.77324 12.2167 8.95499 12.0583 9.08368 11.8598C9.21237 11.6613 9.28282 11.4307 9.28702 11.1941C9.28838 11.0279 9.25007 10.8637 9.17529 10.7151C9.10051 10.5666 8.99142 10.4381 8.85703 10.3401C8.52717 10.0918 8.15422 9.90674 7.75702 9.79414C7.30835 9.65681 6.70168 9.50581 5.93701 9.34114C4.95964 9.13504 3.99474 8.87362 3.047 8.55813C2.30958 8.30575 1.6464 7.87417 1.117 7.30214C0.558961 6.66743 0.270208 5.84025 0.312012 4.99614C0.30553 4.17921 0.560634 3.38165 1.04001 2.72014C1.60348 1.9817 2.36705 1.42048 3.24002 1.10313C4.3854 0.674761 5.60257 0.471058 6.82501 0.50314C7.79781 0.502031 8.76749 0.61276 9.715 0.833142C10.5814 1.02407 11.4143 1.3436 12.186 1.78114L11.086 4.31413C9.77466 3.58914 8.30429 3.19991 6.806 3.18113C6.03962 3.12876 5.27342 3.28533 4.58902 3.63414C4.37333 3.75047 4.19293 3.92272 4.06677 4.13281C3.94061 4.3429 3.87334 4.58308 3.87201 4.82814C3.87641 5.07523 3.95873 5.31462 4.10724 5.51216C4.25575 5.70969 4.46285 5.85528 4.69901 5.92814C5.51622 6.2457 6.36213 6.4838 7.22501 6.63914C8.20227 6.8457 9.16714 7.10711 10.115 7.42213C10.8485 7.67268 11.5106 8.09671 12.045 8.65814C12.6049 9.28383 12.8943 10.1057 12.85 10.9441C12.8539 11.7559 12.5946 12.5471 12.111 13.1991C11.5401 13.9372 10.7712 14.498 9.89401 14.8161C8.74336 15.2443 7.52132 15.4479 6.29401 15.4161C5.09579 15.4186 3.90259 15.2612 2.746 14.9481Z" fill="#524433"/>
<path d="M29.212 10.3121C28.7118 9.76749 28.3272 9.12709 28.0814 8.42961C27.8356 7.73214 27.7338 6.99207 27.7821 6.25414V0.705139H30.556V6.15114C30.556 8.29714 31.4464 9.37013 33.227 9.37013C33.595 9.39482 33.964 9.33779 34.3073 9.20311C34.6507 9.06843 34.96 8.85945 35.2131 8.59114C35.727 7.88644 35.9701 7.02034 35.8981 6.15114V0.705139H38.637V6.25314C38.602 7.32902 38.2613 8.37268 37.6549 9.26207C37.0485 10.1515 36.2014 10.8498 35.2127 11.2755C34.224 11.7011 33.1345 11.8365 32.0717 11.6657C31.0089 11.4949 30.0166 11.0251 29.211 10.3111L29.212 10.3121Z" fill="#524433"/>
<path d="M55.909 1.23713C56.6449 1.55285 57.2727 2.07663 57.715 2.74414C58.1297 3.4424 58.3486 4.23951 58.3486 5.05163C58.3486 5.86375 58.1297 6.66086 57.715 7.35913C57.276 8.02959 56.6472 8.5542 55.909 8.86613C55.0339 9.23252 54.0914 9.41039 53.143 9.38814H50.729V11.5291H47.959V0.705137H53.147C54.0951 0.683969 55.0367 0.865338 55.909 1.23713ZM54.89 6.58813C55.1091 6.39984 55.2817 6.16357 55.3947 5.8977C55.5076 5.63183 55.5576 5.3435 55.541 5.05513C55.5587 4.76414 55.5092 4.473 55.3963 4.20422C55.2834 3.93544 55.1102 3.69624 54.89 3.50514C54.3387 3.10986 53.6668 2.91925 52.9901 2.96614H50.73V7.12713H52.9901C53.6682 7.17497 54.3416 6.98431 54.894 6.58813H54.89Z" fill="#524433"/>
<path d="M74.792 1.23714C75.528 1.55276 76.1557 2.07656 76.598 2.74415C77.0128 3.44238 77.2317 4.2395 77.2317 5.05164C77.2317 5.86378 77.0128 6.66091 76.598 7.35914C76.1591 8.02972 75.5303 8.55437 74.792 8.86614C73.9172 9.23242 72.9751 9.41028 72.027 9.38814H69.613V11.5291H66.839V0.705145H72.027C72.9761 0.683517 73.9187 0.864897 74.792 1.23714ZM73.773 6.58814C73.9921 6.39984 74.1647 6.16358 74.2776 5.89771C74.3906 5.63184 74.4406 5.34351 74.424 5.05514C74.4417 4.76415 74.3922 4.47301 74.2793 4.20423C74.1664 3.93545 73.9932 3.69625 73.773 3.50515C73.2217 3.10987 72.5498 2.91926 71.873 2.96615H69.613V7.12714H71.873C72.5491 7.17356 73.2202 6.98297 73.771 6.58814H73.773Z" fill="#524433"/>
<path d="M85.719 0.705139H88.493V9.26714H94.503V11.5271H85.719V0.705139Z" fill="#524433"/>
<path d="M120 12.4761V15.1471H108.046V0.770142H119.716V3.44115H111.598V6.56415H118.767V9.15314H111.598V12.4811L120 12.4761Z" fill="#524433"/>
<path d="M94.747 14.8881H27.552V15.5001H94.747V14.8881Z" fill="#524433"/>
</svg>
